<svg width="40" xmlns="http://www.w3.org/2000/svg" height="40" id="screenshot-6e17c72b-a694-58e7-95f8-81ae4697f9e3" viewBox="0 0 40 40" xmlns:xlink="http://www.w3.org/1999/xlink" fill="none" version="1.1"><g id="shape-6e17c72b-a694-58e7-95f8-81ae4697f9e3"><defs><clipPath id="frame-clip-6e17c72b-a694-58e7-95f8-81ae4697f9e3-render-1" class="frame-clip frame-clip-def"><rect rx="0" ry="0" x="0" y="0" width="40" height="40" transform="matrix(1.000000, 0.000000, 0.000000, 1.000000, 0.000000, 0.000000)"/></clipPath></defs><g class="frame-container-wrapper" opacity="1"><g class="frame-container-blur"><g class="frame-container-shadows"><g clip-path="url(#frame-clip-6e17c72b-a694-58e7-95f8-81ae4697f9e3-render-1)" fill="none"><g class="fills" id="fills-6e17c72b-a694-58e7-95f8-81ae4697f9e3"><rect width="40" height="40" class="frame-background" x="0" transform="matrix(1.000000, 0.000000, 0.000000, 1.000000, 0.000000, 0.000000)" style="fill: rgb(255, 255, 255); fill-opacity: 0;" ry="0" rx="0" y="0"/></g><g class="frame-children"><g id="shape-d4296706-39f8-57cf-b614-450e7c19451c" style="opacity: 1;"><g class="fills" id="fills-d4296706-39f8-57cf-b614-450e7c19451c"><path d="M6.666667938232422,5.8333740234375L33.333335876464844,4.16668701171875L30,7.5L8.333335876464844,9.16668701171875L6.666667938232422,5.8333740234375Z" fill-rule="nonzero" style="fill: rgb(0, 0, 0); fill-opacity: 1;"/></g></g><g id="shape-6fe2dfb1-a5d6-512f-89a5-6c638486c19e" style="opacity: 1;"><g class="fills" id="fills-6fe2dfb1-a5d6-512f-89a5-6c638486c19e"><path d="M3.3333358764648438,20L14.166667938232422,10L29.166667938232422,10L36.66667175292969,20L25.833335876464844,30L10.833335876464844,30L3.3333358764648438,20ZM7.500003814697266,20L12.500003814697266,25.83331298828125L24.166667938232422,25.83331298828125L32.5,20L25.833335876464844,14.16668701171875L14.166667938232422,14.16668701171875L7.500003814697266,20Z" fill-rule="evenodd" style="fill: rgb(0, 0, 0); fill-opacity: 1;"/></g></g><g id="shape-813c629b-b00b-537d-88c4-1049192b3c6a" style="opacity: 1;"><g class="fills" id="fills-813c629b-b00b-537d-88c4-1049192b3c6a"><path d="M20,15L24.166664123535156,20L20,25L15.833332061767578,20L20,15Z" fill-rule="nonzero" style="fill: rgb(0, 0, 0); fill-opacity: 1;"/></g></g></g></g></g></g></g></g></svg>